<mxfile host="app.diagrams.net" modified="2023-06-01T22:36:56.633Z" agent="Mozilla/5.0 (Macintosh; Intel Mac OS X 10_15_7) AppleWebKit/537.36 (KHTML, like Gecko) Chrome/113.0.0.0 Safari/537.36" etag="j5Bok88QLG7tkMjvG8ki" version="21.3.6" type="github">
  <diagram name="Page-1" id="ct8AoqX9kYLhrmAwCGm1">
    <mxGraphModel dx="1434" dy="796" grid="1" gridSize="10" guides="1" tooltips="1" connect="1" arrows="1" fold="1" page="1" pageScale="1" pageWidth="850" pageHeight="1100" math="0" shadow="0">
      <root>
        <mxCell id="0" />
        <mxCell id="1" parent="0" />
        <mxCell id="IMfL2nZYV4UlLK6mLsEN-9" style="edgeStyle=orthogonalEdgeStyle;rounded=0;orthogonalLoop=1;jettySize=auto;html=1;entryX=0.25;entryY=0;entryDx=0;entryDy=0;" edge="1" parent="1" source="IMfL2nZYV4UlLK6mLsEN-1" target="IMfL2nZYV4UlLK6mLsEN-3">
          <mxGeometry relative="1" as="geometry" />
        </mxCell>
        <mxCell id="IMfL2nZYV4UlLK6mLsEN-1" value="Cube Name:&lt;br&gt;Courses Consolidated v2&lt;br&gt;GUID:&lt;br&gt;57701618-39f2-4ba4-b3df-513913043837" style="rounded=0;whiteSpace=wrap;html=1;align=left;" vertex="1" parent="1">
          <mxGeometry x="160" y="580" width="280" height="60" as="geometry" />
        </mxCell>
        <mxCell id="IMfL2nZYV4UlLK6mLsEN-8" style="edgeStyle=orthogonalEdgeStyle;rounded=0;orthogonalLoop=1;jettySize=auto;html=1;entryX=0.25;entryY=0;entryDx=0;entryDy=0;" edge="1" parent="1" source="IMfL2nZYV4UlLK6mLsEN-2" target="IMfL2nZYV4UlLK6mLsEN-1">
          <mxGeometry relative="1" as="geometry" />
        </mxCell>
        <mxCell id="IMfL2nZYV4UlLK6mLsEN-2" value="Cube Name:&lt;br&gt;EDU Campfire Collective&lt;br&gt;GUID:&lt;br&gt;d3a3b108-6abd-4609-8ca8-d03731ec8aa7" style="rounded=0;whiteSpace=wrap;html=1;align=left;" vertex="1" parent="1">
          <mxGeometry x="20" y="370" width="290" height="60" as="geometry" />
        </mxCell>
        <mxCell id="IMfL2nZYV4UlLK6mLsEN-3" value="Cube Name:&lt;br&gt;Marketing&lt;br&gt;GUID:&lt;br&gt;dff48f69-639d-4f48-a24b-8b7dd591c888" style="rounded=0;whiteSpace=wrap;html=1;align=left;" vertex="1" parent="1">
          <mxGeometry x="180" y="710" width="230" height="60" as="geometry" />
        </mxCell>
        <mxCell id="IMfL2nZYV4UlLK6mLsEN-7" style="edgeStyle=orthogonalEdgeStyle;rounded=0;orthogonalLoop=1;jettySize=auto;html=1;exitX=0.25;exitY=1;exitDx=0;exitDy=0;entryX=0.75;entryY=0;entryDx=0;entryDy=0;" edge="1" parent="1" source="IMfL2nZYV4UlLK6mLsEN-4" target="IMfL2nZYV4UlLK6mLsEN-1">
          <mxGeometry relative="1" as="geometry" />
        </mxCell>
        <mxCell id="IMfL2nZYV4UlLK6mLsEN-4" value="Cube Name:&lt;br&gt;Marketing Kalkomey v2&lt;br&gt;GUID:&lt;br&gt;ceddcd6b-6515-4711-85b6-251a88af6f7b" style="rounded=0;whiteSpace=wrap;html=1;align=left;" vertex="1" parent="1">
          <mxGeometry x="330" y="370" width="230" height="60" as="geometry" />
        </mxCell>
        <mxCell id="IMfL2nZYV4UlLK6mLsEN-5" value="Cube Name:&lt;br&gt;&lt;br&gt;GUID:&lt;br&gt;" style="rounded=0;whiteSpace=wrap;html=1;align=left;" vertex="1" parent="1">
          <mxGeometry x="50" y="60" width="230" height="60" as="geometry" />
        </mxCell>
        <mxCell id="IMfL2nZYV4UlLK6mLsEN-10" style="edgeStyle=orthogonalEdgeStyle;rounded=0;orthogonalLoop=1;jettySize=auto;html=1;entryX=1;entryY=0.25;entryDx=0;entryDy=0;exitX=0.5;exitY=1;exitDx=0;exitDy=0;" edge="1" parent="1" source="IMfL2nZYV4UlLK6mLsEN-6" target="IMfL2nZYV4UlLK6mLsEN-3">
          <mxGeometry relative="1" as="geometry" />
        </mxCell>
        <mxCell id="IMfL2nZYV4UlLK6mLsEN-6" value="Cube Name:&lt;br&gt;MArketing Fresh Air&lt;br&gt;GUID:&lt;br&gt;94a846b0-f85a-4eec-b2dd-17f03e8d8367" style="rounded=0;whiteSpace=wrap;html=1;align=left;" vertex="1" parent="1">
          <mxGeometry x="580" y="370" width="230" height="60" as="geometry" />
        </mxCell>
      </root>
    </mxGraphModel>
  </diagram>
</mxfile>
